<svg xmlns="http://www.w3.org/2000/svg" width="385.333" height="337.333" version="1.0" viewBox="0 0 289 253"><path d="M163 39.9c-16.3 3.1-25.4 9.1-34.8 22.9-3.4 4.9-7.7 12.3-9.6 16.5-1.9 4.1-4.3 8-5.4 8.6-1.2.6-4.7 1.1-8 1.1-4.9 0-7-.6-12.3-3.5-12.2-6.8-15.2-8-20.4-7.9-14.8.1-25.5 10-25.5 23.5 0 8.9 4.4 22.5 8.4 25.8 1.2 1 1.6 3.2 1.6 8.6 0 14.7 6.2 37.1 13.1 47.5 2.2 3.2 7.2 8.9 11.1 12.5 11 10.2 18.7 13.3 46.8 19.1 20.7 4.2 59.6-3.4 76.6-15.1 6.8-4.7 9.6-9 13.3-20 4.9-14.7 5.5-20.5 3.6-32.1-1.9-11.3-6.4-22.6-18.3-45.6L195.5 87l-.1-15.7c-.1-20.3-2.1-25.5-11.6-30.4-5.4-2.8-10.3-3-20.8-1m20.2 3.2c3.8 1.9 7 5.6 8.9 10.5.7 1.7 1.2 9.4 1.3 18.6l.1 15.8 6.9 13.2c21.3 41.1 23.6 52.8 15.4 77.6-4.1 12.3-8.8 17.7-20.2 23.2-10.3 4.9-19.3 7.4-37 10.1-10 1.5-16.3 2-21.5 1.5-11.2-.9-35.4-7.1-42.4-10.9-7.1-3.7-19.1-15.1-23.6-22.2-6.6-10.5-13-36.5-11.8-48.1.5-4.8.3-5.6-1.5-6.7-4-2.4-8.8-15.9-8.8-24.6 0-12 10.4-21.4 23.7-21.4 4 0 5.8.7 20.1 8.3 5.3 2.9 7.2 3.3 12.8 3.2 8.7-.1 10.8-1.6 15-10.8 4.1-9 11.7-20.4 17.3-26 6.5-6.5 14.9-10.4 26.5-12.4 10.8-1.9 13-1.8 18.8 1.1"/><path d="M134.7 121.7c-1.4 1.4-.6 4.2 1.4 4.8 2.7.9 3.9-.4 2.8-3.3-.8-2.1-2.9-2.9-4.2-1.5m-16.7 7.9c-1.1 1.2-1.1 1.8.2 3 1.6 1.7 4.4 1 5.2-1.3 1.3-3.3-3-4.7-5.4-1.7m12.2 3.4c-3.4 2.1-4 3.5-1.9 4.4 1.3.5.2 1.7-6.4 6.7-3.7 2.9-3.5 5.1.3 2.5 3.2-2.3 3.5-2.1 5.7 3 2 4.4 2.1 4.5 6.2 4.2 5.1-.4 7.8-3.4 8.6-9.9.3-2.4 1-5 1.6-5.7 1.5-1.9 0-2.7-2.8-1.4-2.7 1.2-8.5 1.6-8.5.6 0-.3.5-1.5 1.1-2.6 1.7-3.1-.2-4-3.9-1.8m10.2 10.5c-1.2 6.1-5.1 9.8-8.2 7.9-2.2-1.4-4.5-8.4-3.2-9.9.6-.7 3.3-1.2 6.5-1.1h5.6z"/></svg>